<svg id="logos" xmlns="http://www.w3.org/2000/svg" viewBox="0 0 128 128">
    <defs>
        <style>
            .cls-1{fill:#fff;}.cls-2,.cls-3{fill:none;stroke:#fff;stroke-linecap:round;stroke-linejoin:round;}.cls-2{stroke-width:2px;}.cls-3{stroke-width:4px;}
        </style>
    </defs>
    <title>Logo Freyraum</title>
    <g id="white">
        <path class="cls-2"
              d="M104.45,40.77V89.83L62,114.36,19.48,89.83V40.77L62,16.25Zm-69,39.79-8.18,4.72-7.81,4.51v0L62,114.36l42.48-24.53v0l-7.93-4.58-8-4.65M79.74,55.2l24.71-14.27v-.16L62,16.25,19.48,40.77v.16l19.4,11.2M62,114.36V93.07m0-62.39V16.25m0,49.06,0,6.12"/>
        <path class="cls-3"
              d="M74.22,85.14l-3-4.47S59.52,84.27,52,83.55,36.9,76.06,36.9,76.06s.43-5.62,3.89-15.68,9.8-18.9,13.09-21.64,9.1-2.88,14.14,0-1,8.79-5,9.37-2.88-3.6-5.91-2.31-3,17.44-3,17.44.35-1.59,4.9-2.45c6.49-1.23,12,3.46,18,13.54S87,84.13,87,84.13M52.46,72S59,78.51,65.72,72M87,63.9c-12.53-10.14-18.19,0-18.19,0"/>
    </g>
</svg>